<mxfile host="app.diagrams.net" modified="2023-12-08T20:37:30.076Z" agent="Mozilla/5.0 (Windows NT 10.0; Win64; x64) AppleWebKit/537.36 (KHTML, like Gecko) Chrome/118.0.5993.2470 YaBrowser/23.11.0.2470 Yowser/2.5 Safari/537.36" version="22.1.7" etag="MgWsdYmK77oi2CzjBOr1" type="github">
  <diagram name="Страница — 1" id="r8gTyWOFFWwXQ8K8IDo2">
    <mxGraphModel>
      <root>
        <mxCell id="0" />
        <mxCell id="1" parent="0" />
      </root>
    </mxGraphModel>
  </diagram>
</mxfile>
